{
  "accessors": [
    {
      "bufferView": 2,
      "componentType": 5126,
      "count": 31623,
      "max": [
        5.919398307800293,
        12.211823463439941,
        5.021690845489502
      ],
      "min": [
        -5.919398307800293,
        0.0,
        -5.021690845489502
      ],
      "type": "VEC3"
    },
    {
      "bufferView": 2,
      "byteOffset": 379476,
      "componentType": 5126,
      "count": 31623,
      "max": [
        0.9999009370803833,
        0.9996554255485535,
        0.9999687671661377
      ],
      "min": [
        -0.9999564290046692,
        -0.9994089603424072,
        -0.9999926686286926
      ],
      "type": "VEC3"
    },
    {
      "bufferView": 1,
      "componentType": 5126,
      "count": 31623,
      "max": [
        0.9958086609840393,
        0.989601731300354
      ],
      "min": [
        0.010041107423603535,
        0.0060561299324035645
      ],
      "type": "VEC2"
    },
    {
      "bufferView": 1,
      "byteOffset": 252984,
      "componentType": 5126,
      "count": 31623,
      "max": [
        0.9958086609840393,
        0.989601731300354
      ],
      "min": [
        0.010041107423603535,
        0.0060561299324035645
      ],
      "type": "VEC2"
    },
    {
      "bufferView": 1,
      "byteOffset": 505968,
      "componentType": 5126,
      "count": 31623,
      "max": [
        0.9958086609840393,
        0.989601731300354
      ],
      "min": [
        0.010041107423603535,
        0.0060561299324035645
      ],
      "type": "VEC2"
    },
    {
      "bufferView": 1,
      "byteOffset": 758952,
      "componentType": 5126,
      "count": 31623,
      "max": [
        0.9958086609840393,
        0.989601731300354
      ],
      "min": [
        0.010041107423603535,
        0.0060561299324035645
      ],
      "type": "VEC2"
    },
    {
      "bufferView": 1,
      "byteOffset": 1011936,
      "componentType": 5126,
      "count": 31623,
      "max": [
        0.9958086609840393,
        0.989601731300354
      ],
      "min": [
        0.010041107423603535,
        0.0060561299324035645
      ],
      "type": "VEC2"
    },
    {
      "bufferView": 1,
      "byteOffset": 1264920,
      "componentType": 5126,
      "count": 31623,
      "max": [
        0.9958086609840393,
        0.989601731300354
      ],
      "min": [
        0.010041107423603535,
        0.0060561299324035645
      ],
      "type": "VEC2"
    },
    {
      "bufferView": 1,
      "byteOffset": 1517904,
      "componentType": 5126,
      "count": 31623,
      "max": [
        0.9958086609840393,
        0.989601731300354
      ],
      "min": [
        0.010041107423603535,
        0.0060561299324035645
      ],
      "type": "VEC2"
    },
    {
      "bufferView": 1,
      "byteOffset": 1770888,
      "componentType": 5126,
      "count": 31623,
      "max": [
        0.9958086609840393,
        0.989601731300354
      ],
      "min": [
        0.010041107423603535,
        0.0060561299324035645
      ],
      "type": "VEC2"
    },
    {
      "bufferView": 1,
      "byteOffset": 2023872,
      "componentType": 5126,
      "count": 31623,
      "max": [
        0.9958086609840393,
        0.989601731300354
      ],
      "min": [
        0.010041107423603535,
        0.0060561299324035645
      ],
      "type": "VEC2"
    },
    {
      "bufferView": 0,
      "componentType": 5125,
      "count": 143559,
      "type": "SCALAR"
    }
  ],
  "asset": {
    "extras": {
      "author": "Lindsay132 (https://sketchfab.com/Lindsay132)",
      "license": "CC-BY-4.0 (http://creativecommons.org/licenses/by/4.0/)",
      "source": "https://sketchfab.com/3d-models/purple-flower-patch-40024be7853c4a0981309c30f1b3369e",
      "title": "Purple Flower Patch"
    },
    "generator": "Sketchfab-12.67.0",
    "version": "2.0"
  },
  "bufferViews": [
    {
      "buffer": 0,
      "byteLength": 574236,
      "name": "floatBufferViews",
      "target": 34963
    },
    {
      "buffer": 0,
      "byteLength": 2276856,
      "byteOffset": 574236,
      "byteStride": 8,
      "name": "floatBufferViews",
      "target": 34962
    },
    {
      "buffer": 0,
      "byteLength": 758952,
      "byteOffset": 2851092,
      "byteStride": 12,
      "name": "floatBufferViews",
      "target": 34962
    }
  ],
  "buffers": [
    {
      "byteLength": 3610044,
      "uri": "scene.bin"
    }
  ],
  "images": [
    {
      "uri": "textures/Material_47_baseColor.png"
    }
  ],
  "materials": [
    {
      "doubleSided": true,
      "name": "Material_47",
      "pbrMetallicRoughness": {
        "baseColorTexture": {
          "index": 0
        },
        "metallicFactor": 0.0,
        "roughnessFactor": 0.0
      }
    }
  ],
  "meshes": [
    {
      "name": "node_id31_Material_47_0",
      "primitives": [
        {
          "attributes": {
            "NORMAL": 1,
            "POSITION": 0,
            "TEXCOORD_0": 2,
            "TEXCOORD_1": 3,
            "TEXCOORD_2": 4,
            "TEXCOORD_3": 5,
            "TEXCOORD_4": 6,
            "TEXCOORD_5": 7,
            "TEXCOORD_6": 8,
            "TEXCOORD_7": 9,
            "TEXCOORD_8": 10
          },
          "indices": 11,
          "material": 0,
          "mode": 4
        }
      ]
    }
  ],
  "nodes": [
    {
      "children": [
        1
      ],
      "matrix": [
        1.0,
        0.0,
        0.0,
        0.0,
        0.0,
        2.220446049250313e-16,
        -1.0,
        0.0,
        0.0,
        1.0,
        2.220446049250313e-16,
        0.0,
        0.0,
        0.0,
        0.0,
        1.0
      ],
      "name": "Sketchfab_model"
    },
    {
      "children": [
        2
      ],
      "matrix": [
        1.0,
        0.0,
        0.0,
        0.0,
        0.0,
        0.0,
        1.0,
        0.0,
        0.0,
        -1.0,
        0.0,
        0.0,
        0.0,
        0.0,
        0.0,
        1.0
      ],
      "name": "157394f8ca7a48d2b1570bfefc5fd7ed.fbx"
    },
    {
      "children": [
        3
      ],
      "name": "RootNode"
    },
    {
      "children": [
        4
      ],
      "name": "root"
    },
    {
      "children": [
        5
      ],
      "matrix": [
        0.04192658141255379,
        0.0,
        0.0,
        0.0,
        0.0,
        0.04192658141255379,
        0.0,
        0.0,
        0.0,
        0.0,
        0.04192658141255379,
        0.0,
        0.0,
        -0.25600001215934753,
        0.25600001215934753,
        1.0
      ],
      "name": "node_id31"
    },
    {
      "mesh": 0,
      "name": "node_id31_Material_47_0"
    }
  ],
  "samplers": [
    {
      "magFilter": 9729,
      "minFilter": 9987,
      "wrapS": 10497,
      "wrapT": 10497
    }
  ],
  "scene": 0,
  "scenes": [
    {
      "name": "Sketchfab_Scene",
      "nodes": [
        0
      ]
    }
  ],
  "textures": [
    {
      "sampler": 0,
      "source": 0
    }
  ]
}
